<mxfile host="app.diagrams.net" modified="2024-06-12T03:08:58.086Z" agent="Mozilla/5.0 (Windows NT 10.0; Win64; x64) AppleWebKit/537.36 (KHTML, like Gecko) Chrome/125.0.0.0 Safari/537.36" etag="LgBv7jg6JhCNqXAeoIA7" version="24.5.2" type="github">
  <diagram id="C5RBs43oDa-KdzZeNtuy" name="Page-1">
    <mxGraphModel dx="1035" dy="1724" grid="1" gridSize="10" guides="1" tooltips="1" connect="1" arrows="1" fold="1" page="1" pageScale="1" pageWidth="827" pageHeight="1169" math="0" shadow="0">
      <root>
        <mxCell id="WIyWlLk6GJQsqaUBKTNV-0" />
        <mxCell id="WIyWlLk6GJQsqaUBKTNV-1" parent="WIyWlLk6GJQsqaUBKTNV-0" />
        <mxCell id="4ng7hJuE2cmT_dAgRsPD-48" value="" style="whiteSpace=wrap;html=1;aspect=fixed;" vertex="1" parent="WIyWlLk6GJQsqaUBKTNV-1">
          <mxGeometry x="310" y="-19" width="780" height="780" as="geometry" />
        </mxCell>
        <mxCell id="4ng7hJuE2cmT_dAgRsPD-22" style="edgeStyle=orthogonalEdgeStyle;rounded=0;orthogonalLoop=1;jettySize=auto;html=1;exitX=0.5;exitY=0.5;exitDx=0;exitDy=0;exitPerimeter=0;entryX=0;entryY=0.5;entryDx=0;entryDy=0;" edge="1" parent="WIyWlLk6GJQsqaUBKTNV-1" source="4ng7hJuE2cmT_dAgRsPD-0" target="4ng7hJuE2cmT_dAgRsPD-11">
          <mxGeometry relative="1" as="geometry" />
        </mxCell>
        <mxCell id="4ng7hJuE2cmT_dAgRsPD-23" style="edgeStyle=orthogonalEdgeStyle;rounded=0;orthogonalLoop=1;jettySize=auto;html=1;exitX=0.75;exitY=0.1;exitDx=0;exitDy=0;exitPerimeter=0;entryX=0;entryY=0.5;entryDx=0;entryDy=0;" edge="1" parent="WIyWlLk6GJQsqaUBKTNV-1" source="4ng7hJuE2cmT_dAgRsPD-0" target="4ng7hJuE2cmT_dAgRsPD-1">
          <mxGeometry relative="1" as="geometry">
            <Array as="points">
              <mxPoint x="269" y="377" />
              <mxPoint x="269" y="158" />
            </Array>
          </mxGeometry>
        </mxCell>
        <mxCell id="4ng7hJuE2cmT_dAgRsPD-24" style="edgeStyle=orthogonalEdgeStyle;rounded=0;orthogonalLoop=1;jettySize=auto;html=1;exitX=1;exitY=0.3333333333333333;exitDx=0;exitDy=0;exitPerimeter=0;entryX=0;entryY=0.5;entryDx=0;entryDy=0;" edge="1" parent="WIyWlLk6GJQsqaUBKTNV-1" source="4ng7hJuE2cmT_dAgRsPD-0" target="4ng7hJuE2cmT_dAgRsPD-2">
          <mxGeometry relative="1" as="geometry" />
        </mxCell>
        <mxCell id="4ng7hJuE2cmT_dAgRsPD-25" style="edgeStyle=orthogonalEdgeStyle;rounded=0;orthogonalLoop=1;jettySize=auto;html=1;exitX=1;exitY=1;exitDx=0;exitDy=0;exitPerimeter=0;entryX=0;entryY=0.5;entryDx=0;entryDy=0;" edge="1" parent="WIyWlLk6GJQsqaUBKTNV-1" source="4ng7hJuE2cmT_dAgRsPD-0" target="4ng7hJuE2cmT_dAgRsPD-17">
          <mxGeometry relative="1" as="geometry" />
        </mxCell>
        <mxCell id="4ng7hJuE2cmT_dAgRsPD-26" style="edgeStyle=orthogonalEdgeStyle;rounded=0;orthogonalLoop=1;jettySize=auto;html=1;exitX=0;exitY=1;exitDx=0;exitDy=0;exitPerimeter=0;entryX=0;entryY=0.5;entryDx=0;entryDy=0;" edge="1" parent="WIyWlLk6GJQsqaUBKTNV-1" source="4ng7hJuE2cmT_dAgRsPD-0" target="4ng7hJuE2cmT_dAgRsPD-4">
          <mxGeometry relative="1" as="geometry" />
        </mxCell>
        <mxCell id="4ng7hJuE2cmT_dAgRsPD-0" value="Pengguna" style="shape=umlActor;verticalLabelPosition=bottom;verticalAlign=top;html=1;outlineConnect=0;" vertex="1" parent="WIyWlLk6GJQsqaUBKTNV-1">
          <mxGeometry x="184" y="371" width="30" height="60" as="geometry" />
        </mxCell>
        <mxCell id="4ng7hJuE2cmT_dAgRsPD-1" value="Kelola Pembuatan Akun" style="ellipse;whiteSpace=wrap;html=1;" vertex="1" parent="WIyWlLk6GJQsqaUBKTNV-1">
          <mxGeometry x="369" y="118" width="120" height="80" as="geometry" />
        </mxCell>
        <mxCell id="4ng7hJuE2cmT_dAgRsPD-2" value="Pencarian UMKM dan Pelatihan UMKM" style="ellipse;whiteSpace=wrap;html=1;" vertex="1" parent="WIyWlLk6GJQsqaUBKTNV-1">
          <mxGeometry x="369" y="240" width="120" height="80" as="geometry" />
        </mxCell>
        <mxCell id="4ng7hJuE2cmT_dAgRsPD-3" value="Pencarian Lokasi UMKM dan Pelatihan UMKM" style="ellipse;whiteSpace=wrap;html=1;" vertex="1" parent="WIyWlLk6GJQsqaUBKTNV-1">
          <mxGeometry x="650" y="118" width="120" height="80" as="geometry" />
        </mxCell>
        <mxCell id="4ng7hJuE2cmT_dAgRsPD-4" value="Kelola Profil" style="ellipse;whiteSpace=wrap;html=1;" vertex="1" parent="WIyWlLk6GJQsqaUBKTNV-1">
          <mxGeometry x="369" y="600" width="120" height="80" as="geometry" />
        </mxCell>
        <mxCell id="4ng7hJuE2cmT_dAgRsPD-5" value="Kelola Potensi Resiko UMKM dan Pelatihan UMKM" style="ellipse;whiteSpace=wrap;html=1;" vertex="1" parent="WIyWlLk6GJQsqaUBKTNV-1">
          <mxGeometry x="650" y="230" width="120" height="80" as="geometry" />
        </mxCell>
        <mxCell id="4ng7hJuE2cmT_dAgRsPD-7" value="" style="endArrow=none;html=1;rounded=0;entryX=0;entryY=0.5;entryDx=0;entryDy=0;exitX=1;exitY=0.5;exitDx=0;exitDy=0;dashed=1;dashPattern=8 8;" edge="1" parent="WIyWlLk6GJQsqaUBKTNV-1" source="4ng7hJuE2cmT_dAgRsPD-2" target="4ng7hJuE2cmT_dAgRsPD-3">
          <mxGeometry width="50" height="50" relative="1" as="geometry">
            <mxPoint x="439" y="310" as="sourcePoint" />
            <mxPoint x="489" y="260" as="targetPoint" />
          </mxGeometry>
        </mxCell>
        <mxCell id="4ng7hJuE2cmT_dAgRsPD-42" value="&amp;lt;&amp;lt;Extend&amp;gt;&amp;gt;" style="edgeLabel;html=1;align=center;verticalAlign=middle;resizable=0;points=[];" vertex="1" connectable="0" parent="4ng7hJuE2cmT_dAgRsPD-7">
          <mxGeometry x="0.3731" y="3" relative="1" as="geometry">
            <mxPoint as="offset" />
          </mxGeometry>
        </mxCell>
        <mxCell id="4ng7hJuE2cmT_dAgRsPD-8" value="" style="endArrow=none;html=1;rounded=0;entryX=1;entryY=0.5;entryDx=0;entryDy=0;exitX=0;exitY=0.5;exitDx=0;exitDy=0;dashed=1;dashPattern=8 8;" edge="1" parent="WIyWlLk6GJQsqaUBKTNV-1" source="4ng7hJuE2cmT_dAgRsPD-5" target="4ng7hJuE2cmT_dAgRsPD-2">
          <mxGeometry width="50" height="50" relative="1" as="geometry">
            <mxPoint x="439" y="310" as="sourcePoint" />
            <mxPoint x="489" y="260" as="targetPoint" />
          </mxGeometry>
        </mxCell>
        <mxCell id="4ng7hJuE2cmT_dAgRsPD-46" value="&amp;lt;&amp;lt;Extend&amp;gt;&amp;gt;" style="edgeLabel;html=1;align=center;verticalAlign=middle;resizable=0;points=[];" vertex="1" connectable="0" parent="4ng7hJuE2cmT_dAgRsPD-8">
          <mxGeometry x="-0.4825" relative="1" as="geometry">
            <mxPoint as="offset" />
          </mxGeometry>
        </mxCell>
        <mxCell id="4ng7hJuE2cmT_dAgRsPD-11" value="Pedoman Komunitas Sosial" style="ellipse;whiteSpace=wrap;html=1;" vertex="1" parent="WIyWlLk6GJQsqaUBKTNV-1">
          <mxGeometry x="369" y="361" width="120" height="80" as="geometry" />
        </mxCell>
        <mxCell id="4ng7hJuE2cmT_dAgRsPD-14" value="Kelola Kata Sandi" style="ellipse;whiteSpace=wrap;html=1;" vertex="1" parent="WIyWlLk6GJQsqaUBKTNV-1">
          <mxGeometry x="600" y="600" width="120" height="80" as="geometry" />
        </mxCell>
        <mxCell id="4ng7hJuE2cmT_dAgRsPD-15" value="" style="endArrow=none;html=1;rounded=0;exitX=1;exitY=0.5;exitDx=0;exitDy=0;entryX=0;entryY=0.5;entryDx=0;entryDy=0;dashed=1;dashPattern=8 8;" edge="1" parent="WIyWlLk6GJQsqaUBKTNV-1" source="4ng7hJuE2cmT_dAgRsPD-4" target="4ng7hJuE2cmT_dAgRsPD-14">
          <mxGeometry width="50" height="50" relative="1" as="geometry">
            <mxPoint x="439" y="510" as="sourcePoint" />
            <mxPoint x="489" y="460" as="targetPoint" />
          </mxGeometry>
        </mxCell>
        <mxCell id="4ng7hJuE2cmT_dAgRsPD-16" value="&amp;lt;&amp;lt;Extend&amp;gt;&amp;gt;" style="edgeLabel;html=1;align=center;verticalAlign=middle;resizable=0;points=[];" vertex="1" connectable="0" parent="4ng7hJuE2cmT_dAgRsPD-15">
          <mxGeometry x="0.0088" y="-2" relative="1" as="geometry">
            <mxPoint as="offset" />
          </mxGeometry>
        </mxCell>
        <mxCell id="4ng7hJuE2cmT_dAgRsPD-17" value="Kelola Riwayat" style="ellipse;whiteSpace=wrap;html=1;" vertex="1" parent="WIyWlLk6GJQsqaUBKTNV-1">
          <mxGeometry x="369" y="480" width="120" height="80" as="geometry" />
        </mxCell>
        <mxCell id="4ng7hJuE2cmT_dAgRsPD-27" value="Login" style="ellipse;whiteSpace=wrap;html=1;" vertex="1" parent="WIyWlLk6GJQsqaUBKTNV-1">
          <mxGeometry x="690" y="361" width="120" height="80" as="geometry" />
        </mxCell>
        <mxCell id="4ng7hJuE2cmT_dAgRsPD-30" value="" style="endArrow=none;html=1;rounded=0;entryX=1;entryY=1;entryDx=0;entryDy=0;exitX=0;exitY=0.5;exitDx=0;exitDy=0;dashed=1;dashPattern=8 8;" edge="1" parent="WIyWlLk6GJQsqaUBKTNV-1" source="4ng7hJuE2cmT_dAgRsPD-27" target="4ng7hJuE2cmT_dAgRsPD-1">
          <mxGeometry width="50" height="50" relative="1" as="geometry">
            <mxPoint x="519" y="330" as="sourcePoint" />
            <mxPoint x="569" y="280" as="targetPoint" />
          </mxGeometry>
        </mxCell>
        <mxCell id="4ng7hJuE2cmT_dAgRsPD-37" value="&amp;lt;&amp;lt;Include&amp;gt;&amp;gt;" style="edgeLabel;html=1;align=center;verticalAlign=middle;resizable=0;points=[];" vertex="1" connectable="0" parent="4ng7hJuE2cmT_dAgRsPD-30">
          <mxGeometry x="-0.505" y="3" relative="1" as="geometry">
            <mxPoint as="offset" />
          </mxGeometry>
        </mxCell>
        <mxCell id="4ng7hJuE2cmT_dAgRsPD-31" value="" style="endArrow=none;html=1;rounded=0;exitX=1;exitY=1;exitDx=0;exitDy=0;entryX=0;entryY=0.5;entryDx=0;entryDy=0;dashed=1;dashPattern=8 8;" edge="1" parent="WIyWlLk6GJQsqaUBKTNV-1" source="4ng7hJuE2cmT_dAgRsPD-2" target="4ng7hJuE2cmT_dAgRsPD-27">
          <mxGeometry width="50" height="50" relative="1" as="geometry">
            <mxPoint x="519" y="330" as="sourcePoint" />
            <mxPoint x="569" y="280" as="targetPoint" />
          </mxGeometry>
        </mxCell>
        <mxCell id="4ng7hJuE2cmT_dAgRsPD-38" value="&amp;lt;&amp;lt;Include&amp;gt;&amp;gt;" style="edgeLabel;html=1;align=center;verticalAlign=middle;resizable=0;points=[];" vertex="1" connectable="0" parent="4ng7hJuE2cmT_dAgRsPD-31">
          <mxGeometry x="-0.2943" y="1" relative="1" as="geometry">
            <mxPoint as="offset" />
          </mxGeometry>
        </mxCell>
        <mxCell id="4ng7hJuE2cmT_dAgRsPD-32" value="" style="endArrow=none;html=1;rounded=0;exitX=1;exitY=0.5;exitDx=0;exitDy=0;entryX=0;entryY=0.5;entryDx=0;entryDy=0;dashed=1;dashPattern=8 8;" edge="1" parent="WIyWlLk6GJQsqaUBKTNV-1" source="4ng7hJuE2cmT_dAgRsPD-11" target="4ng7hJuE2cmT_dAgRsPD-27">
          <mxGeometry width="50" height="50" relative="1" as="geometry">
            <mxPoint x="519" y="430" as="sourcePoint" />
            <mxPoint x="569" y="380" as="targetPoint" />
          </mxGeometry>
        </mxCell>
        <mxCell id="4ng7hJuE2cmT_dAgRsPD-39" value="&amp;lt;&amp;lt;Include&amp;gt;&amp;gt;" style="edgeLabel;html=1;align=center;verticalAlign=middle;resizable=0;points=[];" vertex="1" connectable="0" parent="4ng7hJuE2cmT_dAgRsPD-32">
          <mxGeometry x="-0.4317" y="-1" relative="1" as="geometry">
            <mxPoint as="offset" />
          </mxGeometry>
        </mxCell>
        <mxCell id="4ng7hJuE2cmT_dAgRsPD-33" value="" style="endArrow=none;html=1;rounded=0;exitX=1;exitY=0;exitDx=0;exitDy=0;entryX=0;entryY=0.5;entryDx=0;entryDy=0;dashed=1;dashPattern=8 8;" edge="1" parent="WIyWlLk6GJQsqaUBKTNV-1" source="4ng7hJuE2cmT_dAgRsPD-17" target="4ng7hJuE2cmT_dAgRsPD-27">
          <mxGeometry width="50" height="50" relative="1" as="geometry">
            <mxPoint x="519" y="530" as="sourcePoint" />
            <mxPoint x="569" y="480" as="targetPoint" />
          </mxGeometry>
        </mxCell>
        <mxCell id="4ng7hJuE2cmT_dAgRsPD-40" value="&amp;lt;&amp;lt;Include&amp;gt;&amp;gt;" style="edgeLabel;html=1;align=center;verticalAlign=middle;resizable=0;points=[];" vertex="1" connectable="0" parent="4ng7hJuE2cmT_dAgRsPD-33">
          <mxGeometry x="-0.2006" y="1" relative="1" as="geometry">
            <mxPoint as="offset" />
          </mxGeometry>
        </mxCell>
        <mxCell id="4ng7hJuE2cmT_dAgRsPD-34" value="" style="endArrow=none;html=1;rounded=0;exitX=1;exitY=0;exitDx=0;exitDy=0;entryX=0;entryY=0.5;entryDx=0;entryDy=0;dashed=1;dashPattern=8 8;" edge="1" parent="WIyWlLk6GJQsqaUBKTNV-1" source="4ng7hJuE2cmT_dAgRsPD-4" target="4ng7hJuE2cmT_dAgRsPD-27">
          <mxGeometry width="50" height="50" relative="1" as="geometry">
            <mxPoint x="519" y="530" as="sourcePoint" />
            <mxPoint x="569" y="480" as="targetPoint" />
          </mxGeometry>
        </mxCell>
        <mxCell id="4ng7hJuE2cmT_dAgRsPD-41" value="&amp;lt;&amp;lt;Include&amp;gt;&amp;gt;" style="edgeLabel;html=1;align=center;verticalAlign=middle;resizable=0;points=[];" vertex="1" connectable="0" parent="4ng7hJuE2cmT_dAgRsPD-34">
          <mxGeometry x="0.2022" y="3" relative="1" as="geometry">
            <mxPoint as="offset" />
          </mxGeometry>
        </mxCell>
        <mxCell id="4ng7hJuE2cmT_dAgRsPD-35" value="Logout" style="ellipse;whiteSpace=wrap;html=1;" vertex="1" parent="WIyWlLk6GJQsqaUBKTNV-1">
          <mxGeometry x="910" y="361" width="120" height="80" as="geometry" />
        </mxCell>
        <mxCell id="4ng7hJuE2cmT_dAgRsPD-36" value="" style="endArrow=none;html=1;rounded=0;exitX=1;exitY=0.5;exitDx=0;exitDy=0;entryX=0;entryY=0.5;entryDx=0;entryDy=0;dashed=1;dashPattern=8 8;" edge="1" parent="WIyWlLk6GJQsqaUBKTNV-1" source="4ng7hJuE2cmT_dAgRsPD-27" target="4ng7hJuE2cmT_dAgRsPD-35">
          <mxGeometry width="50" height="50" relative="1" as="geometry">
            <mxPoint x="660" y="380" as="sourcePoint" />
            <mxPoint x="710" y="330" as="targetPoint" />
          </mxGeometry>
        </mxCell>
        <mxCell id="4ng7hJuE2cmT_dAgRsPD-47" value="&amp;lt;&amp;lt;Extend&amp;gt;&amp;gt;" style="edgeLabel;html=1;align=center;verticalAlign=middle;resizable=0;points=[];" vertex="1" connectable="0" parent="4ng7hJuE2cmT_dAgRsPD-36">
          <mxGeometry x="0.1125" relative="1" as="geometry">
            <mxPoint as="offset" />
          </mxGeometry>
        </mxCell>
        <mxCell id="4ng7hJuE2cmT_dAgRsPD-50" value="" style="rounded=0;whiteSpace=wrap;html=1;" vertex="1" parent="WIyWlLk6GJQsqaUBKTNV-1">
          <mxGeometry x="365" width="120" height="60" as="geometry" />
        </mxCell>
        <mxCell id="4ng7hJuE2cmT_dAgRsPD-49" value="SITA" style="text;html=1;align=center;verticalAlign=middle;whiteSpace=wrap;rounded=0;fontSize=47;fontStyle=1" vertex="1" parent="WIyWlLk6GJQsqaUBKTNV-1">
          <mxGeometry x="397" y="11" width="56" height="40" as="geometry" />
        </mxCell>
      </root>
    </mxGraphModel>
  </diagram>
</mxfile>
